# xmcd CD database file
#
# Track frame offsets:
#	150
#	11360
#	40074
#	67534
#	75617
#	97851
#	119936
#	141486
#	155891
#	163835
#	173027
#	196607
#
# Disc length: 2875 seconds
#
# Revision: 0
# Processed by: cddbd v1.4PL0 Copyright (c) Steve Scherf et al.
# Submitted via: CDex 1.50Beta7
#
DISCID=950b390c
DTITLE=Elegant Simplicity - The Story Of Our Lives
DYEAR=2000
DGENRE=New Age
TTITLE0=First Meeting
TTITLE1=Behind the glances: First look
TTITLE2=Anguish and Betrayal
TTITLE3=Fluttering Heart
TTITLE4=Sleepless: Episode one
TTITLE5=It all starts here
TTITLE6=Second Meeting
TTITLE7=Sleepless: Episode two
TTITLE8=In Your Presence
TTITLE9=Realisation
TTITLE10=Behind the glances: Second Look
TTITLE11=More than goodbye
EXTD=YEAR: 2000
EXTT0=
EXTT1=
EXTT2=
EXTT3=
EXTT4=
EXTT5=
EXTT6=
EXTT7=
EXTT8=
EXTT9=
EXTT10=
EXTT11=
PLAYORDER=
